#File written by LIBRIZOMUV. Compilation :Jan 29 2019,17:17:16
mtllib 1:mtl
#begin vertices
v -26.9341 0 -38.7386
v -26.9341 0 35.2567
v 27.7502 0 35.2567
v 27.7502 0 -38.7386
v -36.6277 -0.4282 44.6118
v 37.4434 -0.4282 44.6118
v 37.4434 0.7908 44.6118
v -36.6277 0.7908 44.6118
v 37.4434 -0.4282 -48.3882
v 37.4434 0.7908 -48.3882
v -36.6277 -0.4282 -48.3882
v -36.6277 0.7908 -48.3882
v -34.4279 1.4982 42.5752
v 35.2437 1.4982 42.5752
v 27.4451 1.4982 35.355
v -26.6293 1.4982 35.355
v 35.2437 1.4982 -46.3516
v 27.4451 1.4982 -39.1315
v -34.4279 1.4982 -46.3516
v -26.6293 1.4982 -39.1315
v -26.1631 1.3483 34.9234
v 26.9789 1.3483 34.9234
v 26.9789 -0.1643 34.9234
v -26.1631 -0.1643 34.9234
v 26.9789 1.3483 -38.6999
v 26.9789 -0.1643 -38.6999
v -26.1631 1.3483 -38.6999
v -26.1631 -0.1643 -38.6999
v -35.3903 1.454 43.4662
v 36.2061 1.454 43.4662
v 36.2061 1.454 -47.2426
v -35.3903 1.454 -47.2426
v -36.0777 1.3214 44.1026
v 36.8935 1.3214 44.1026
v -36.4902 1.1003 44.4845
v 37.306 1.1003 44.4845
v 36.8935 1.3214 -47.8791
v 37.306 1.1003 -48.2609
v -36.0777 1.3214 -47.8791
v -36.4902 1.1003 -48.2609
v -26.2149 1.4316 34.9714
v 27.0307 1.4316 34.9714
v 27.0307 1.4316 -38.7478
v -26.2149 1.4316 -38.7478
v -26.3703 1.4816 35.1152
v 27.1861 1.4816 35.1152
v 27.1861 1.4816 -38.8917
v -26.3703 1.4816 -38.8917
#end vertices

#begin 100 textures vertices 
vt 0.001953125 0.6639484 0
vt 0.001953125 0.001953125 0
vt 0.4911835 0.001953125 0
vt 0.4911835 0.6639484 0
vt 0.9302972 0.001953125 0
vt 0.7164442 0.001953125 0
vt 0.9193915 0.6646265 0
vt 0.9193915 0.001953125 0
vt 0.8222201 0.001953125 0
vt 0.7055384 0.833973 0
vt 0.497307 0.833973 0
vt 0.8113144 0.6646265 0
vt 0.8986527 0.02163353 0
vt 0.8986527 0.644947 0
vt 0.8340575 0.5751772 0
vt 0.8340575 0.09140331 0
vt 0.6834395 0.8157527 0
vt 0.6136697 0.7511584 0
vt 0.7905754 0.6449461 0
vt 0.7259812 0.5751763 0
vt 0.9845145 0.4778488 0
vt 0.9845145 0.002416551 0
vt 0.9980469 0.002416551 0
vt 0.9386222 0.6610488 0
vt 0.9746707 0.6610497 0
vt 0.9611383 0.6610497 0
vt 0.9971868 0.9572669 0
vt 0.9836544 0.9572669 0
vt 0.9066338 0.01302346 0
vt 0.9066338 0.6535571 0
vt 0.6920587 0.8237239 0
vt 0.7985565 0.6535562 0
vt 0.9124496 0.006873673 0
vt 0.9124496 0.6597069 0
vt 0.9163975 0.003183262 0
vt 0.9163975 0.6633973 0
vt 0.6983218 0.8294184 0
vt 0.7025089 0.8328341 0
vt 0.8043732 0.659706 0
vt 0.8083204 0.6633964 0
vt 0.9836544 0.4783122 0
vt 0.9836544 0.001953125 0
vt 0.9755483 0.6614783 0
vt 0.9980464 0.9577304 0
vt 0.831907 0.09372044 0
vt 0.831907 0.5728601 0
vt 0.6113478 0.749013 0
vt 0.7238307 0.5728592 0
vt 0.5112426 0.8328341 0
vt 0.5082127 0.001953125 0
vt 0.497307 0.001953125 0
vt 0.9302972 0.6646265 0
vt 0.7055384 0.001953125 0
vt 0.5082127 0.833973 0
vt 0.7025089 0.003092008 0
vt 0.5112426 0.003092008 0
vt 0.8113144 0.001953125 0
vt 0.8083204 0.003182367 0
vt 0.7164442 0.833973 0
vt 0.5154297 0.8294184 0
vt 0.8043732 0.006872778 0
vt 0.6983218 0.006508657 0
vt 0.7985565 0.01302257 0
vt 0.6920587 0.01220218 0
vt 0.5216928 0.01220218 0
vt 0.5154297 0.006508657 0
vt 0.5216928 0.8237239 0
vt 0.530312 0.02017347 0
vt 0.530312 0.8157527 0
vt 0.7905754 0.02163263 0
vt 0.7259812 0.09140242 0
vt 0.6000818 0.7511584 0
vt 0.6024036 0.749013 0
vt 0.7238307 0.09371955 0
vt 0.6136697 0.08476862 0
vt 0.6113478 0.08691398 0
vt 0.6024036 0.08691398 0
vt 0.6000818 0.08476862 0
vt 0.830545 0.5714698 0
vt 0.9755483 0.001953125 0
vt 0.6098874 0.08820048 0
vt 0.9530322 0.6614783 0
vt 0.6038641 0.08820048 0
vt 0.830545 0.09511072 0
vt 0.7224678 0.5714689 0
vt 0.9530322 0.001953125 0
vt 0.6038641 0.7477256 0
vt 0.9521546 0.6610488 0
vt 0.9521546 0.00238166 0
vt 0.6098874 0.7477256 0
vt 0.9980464 0.4813713 0
vt 0.7224678 0.09510983 0
vt 0.9971868 0.4818347 0
vt 0.9746707 0.002382555 0
vt 0.9611383 0.002382555 0
vt 0.9836544 0.4818347 0
vt 0.9980469 0.4778488 0
vt 0.9386222 0.00238166 0
vt 0.6834395 0.02017347 0
vt 0.8222201 0.6646265 0
#end 100 textures vertices 

#begin 45 normals 
vn 0 1 -0
vn -0.7071 0 0.7071
vn 0.7071 0 0.7071
vn 0.7054 0.0687 0.7054
vn -0.7054 0.0687 0.7054
vn 0.7071 0 -0.7071
vn 0.7054 0.0687 -0.7054
vn -0.7071 0 -0.7071
vn -0.7054 0.0687 -0.7054
vn -0.0749 0.9944 0.0749
vn 0.0749 0.9944 0.0749
vn -0.0349 0.9988 -0.0349
vn 0.0349 0.9988 -0.0349
vn 0.0749 0.9944 -0.0749
vn -0.0349 0.9988 0.0349
vn -0.0749 0.9944 -0.0749
vn 0.0349 0.9988 0.0349
vn 0.7033 0.1032 -0.7033
vn -0.7033 0.1032 -0.7033
vn -0.7071 -0 -0.7071
vn 0.7071 -0 -0.7071
vn -0.7033 0.1032 0.7033
vn -0.7071 -0 0.7071
vn 0.7033 0.1032 0.7033
vn 0.7071 -0 0.7071
vn -0.2933 0.9099 0.2933
vn 0.2933 0.9099 0.2933
vn 0.2933 0.9099 -0.2933
vn -0.2933 0.9099 -0.2933
vn -0.5345 0.6547 0.5345
vn 0.5345 0.6547 0.5345
vn -0.6724 0.3093 0.6724
vn 0.6724 0.3093 0.6724
vn 0.5345 0.6547 -0.5345
vn 0.6724 0.3093 -0.6724
vn -0.5345 0.6547 -0.5345
vn -0.6724 0.3093 -0.6724
vn 0.5963 0.5375 -0.5963
vn -0.5963 0.5375 -0.5963
vn -0.5963 0.5375 0.5963
vn 0.5963 0.5375 0.5963
vn 0.2451 0.938 -0.2451
vn -0.2451 0.938 -0.2451
vn -0.2451 0.938 0.2451
vn 0.2451 0.938 0.2451
#end 45 normals 

#begin 41 faces
o Plane001
usemtl wire_213154229
g Plane001
s 1
f 1/1/1 2/2/1 3/3/1 4/4/1 
o Box001
usemtl wire_177088027
g Box001
s 1
f 5/5/2 6/52/3 7/7/4 8/8/5 
f 6/6/3 9/59/6 10/10/7 7/53/4 
f 9/9/6 11/100/8 12/12/9 10/57/7 
f 11/11/8 5/51/2 8/50/5 12/54/9 
f 13/13/10 14/14/11 15/15/12 16/16/13 
f 14/99/11 17/17/14 18/18/15 15/75/12 
f 17/70/14 19/19/16 20/20/17 18/71/15 
f 19/69/16 13/68/10 16/78/13 20/72/17 
s 2
f 21/21/18 22/22/19 23/23/20 24/97/21 
s 4
f 22/94/19 25/25/22 26/26/23 23/95/20 
s 2
f 25/93/22 27/27/24 28/28/25 26/96/23 
s 4
f 27/89/24 21/88/18 24/24/21 28/98/25 
s 1
f 13/13/10 29/29/26 30/30/27 14/14/11 
f 14/99/11 30/64/27 31/31/28 17/17/14 
f 17/70/14 31/63/28 32/32/29 19/19/16 
f 19/69/16 32/67/29 29/65/26 13/68/10 
f 29/29/26 33/33/30 34/34/31 30/30/27 
f 33/33/30 35/35/32 36/36/33 34/34/31 
f 35/35/32 8/8/5 7/7/4 36/36/33 
f 30/64/27 34/62/31 37/37/34 31/31/28 
f 34/62/31 36/55/33 38/38/35 37/37/34 
f 36/55/33 7/53/4 10/10/7 38/38/35 
f 31/63/28 37/61/34 39/39/36 32/32/29 
f 37/61/34 38/58/35 40/40/37 39/39/36 
f 38/58/35 10/57/7 12/12/9 40/40/37 
f 32/67/29 39/60/36 33/66/30 29/65/26 
f 39/60/36 40/49/37 35/56/32 33/66/30 
f 40/49/37 12/54/9 8/50/5 35/56/32 
s 2
f 21/21/18 41/41/38 42/42/39 22/22/19 
s 4
f 22/94/19 42/80/39 43/43/40 25/25/22 
s 2
f 25/93/22 43/91/40 44/44/41 27/27/24 
s 4
f 27/89/24 44/86/41 41/82/38 21/88/18 
s 2
f 41/84/38 45/45/42 46/46/43 42/79/39 
s 1
f 45/45/42 16/16/13 15/15/12 46/46/43 
s 4
f 42/81/39 46/76/43 47/47/44 43/90/40 
s 1
f 46/76/43 15/75/12 18/18/15 47/47/44 
s 2
f 43/92/40 47/74/44 48/48/45 44/85/41 
s 1
f 47/74/44 18/71/15 20/20/17 48/48/45 
s 4
f 44/87/41 48/73/45 45/77/42 41/83/38 
s 1
f 48/73/45 20/72/17 16/78/13 45/77/42 
#end 41 faces

#begin properties
#ZOMPROPERTIES_02 table {Mesh table {IslandsUVW table {0 table {TopoStable table {Selected bool false Visible bool false } } 1 table {TopoStable table {Selected bool false Visible bool false } } 2 table {TopoStable table {Selected bool false Visible bool false } } 3 table {TopoStable table {Selected bool false Visible bool false } } 4 table {TopoStable table {Selected bool false Visible bool false } } 5 table {TopoStable table {Selected bool false Visible bool false } } 6 table {TopoStable table {Selected bool false Visible bool false } } 7 table {TopoStable table {Selected bool false Visible bool false } } 8 table {TopoStable table {Selected bool false Visible bool false } } } SymPlane table {Point vector3d 0 0 0 Normal vector3d 1 0 0 Threshold double 0.01 Enabled bool false EdgeID int -1 SymEdgeID int -1 UPos double 0.5 LocalMode bool false } RootGroup CSubMeshGroup {Children table {Tile_0_0 CSubMeshGroup {Children table {} IslandIDs ints { 4 0 1 2 3 5 6 7 8 } BBoxUV box3d 0 0 0 0 0 0 BBox3D box3d 0 0 0 0 0 0 AreaUV double 0.6338361 Area3D double 0 IsRoot bool false TopoStable table {Selected bool false Box box3d 0 1 0 1 0 1 U int 0 V int 0 NU int 0 NV int 0 Tiling vector3d 1 1 1 TileRatioMode string "1:1" } IsTile bool true } } IslandIDs ints { } BBoxUV box3d 0 0 0 0 0 0 BBox3D box3d 0 0 0 0 0 0 AreaUV double 0 Area3D double 0 IsRoot bool true TopoStable table {Selected bool false Box box3d 0 1 0 1 0 1 U int 0 V int 0 NU int 1 NV int 1 Tiling vector3d 1 1 1 TileRatioMode string "1:1" Pack table {Rotate table {Mode int 2 Min double 0 Max double 180 Step double 0 } SpacingSize double 0.00390625 MarginSize double 0.001953125 Resolution int 200 Scaling table {Mode int 0 } LayoutScalingMode int 2 MaxMutations int 1 } } IsTile bool false } Maps table {Density table {PrimType string "Polygon" Size int 1 DefaultValue double 1 ScaleType string "Log" MinValue double 0.1 MaxValue double 4 Data doubles { r 41 1 } } Pin table {PrimType string "Vertex" Size int 1 DefaultValue double 0 ScaleType string "Normalized" MinValue double 0 MaxValue double 1 Data doubles { r 100 0 } } Protect table {PrimType string "Vertex" Size int 1 DefaultValue double 0 ScaleType string "Normalized" MinValue double -1 MaxValue double 1 Data doubles { r 100 0 } } } } }
#end properties

#begin 0 fatal error vertex (that RizomUV cannot handle)
#end 0 fatal error vertex (that RizomUV cannot handle)

#begin 0 error vertex
#end 0 error vertex
