# Blender v2.83.0 OBJ File: 'fenster.blend'
# www.blender.org
mtllib fenster.mtl
o Plane
v 0.128880 1.000000 1.379433
v 0.202972 1.000000 1.379433
v 0.128881 -1.000000 1.379433
v 0.202972 -1.000000 1.379433
v 0.128880 1.000000 -1.379433
v 0.202972 1.000000 -1.379433
v 0.128881 -1.000000 -1.379433
v 0.202972 -1.000000 -1.379433
v 0.125699 1.085868 1.497882
v 0.206153 1.085868 1.497882
v 0.125699 -1.085868 1.497882
v 0.206153 -1.085868 1.497882
v 0.125699 1.085868 -1.497882
v 0.206153 1.085868 -1.497882
v 0.125699 -1.085868 -1.497882
v 0.206153 -1.085868 -1.497882
vt 0.000000 0.000000
vt 0.000000 1.000000
vt 0.000000 0.000000
vt 0.000000 0.000000
vt 0.000000 0.000000
vt 0.000000 0.000000
vt 0.000000 0.000000
vt 0.000000 0.000000
vt 0.000000 0.000000
vt 0.000000 0.000000
vt 0.000000 0.000000
vt 0.000000 0.000000
vt 0.000000 0.000000
vt 0.000000 0.000000
vt 0.000000 1.000000
vt 0.000000 0.000000
vt 0.000000 0.000000
vt 1.000000 1.000000
vt 1.000000 1.000000
vt 0.000000 0.000000
vn 0.0000 -1.0000 0.0000
vn 0.0000 0.0000 1.0000
vn 0.0000 1.0000 0.0000
vn 0.0000 0.0000 -1.0000
vn 0.9993 0.0370 0.0000
vn 0.9996 0.0000 0.0268
vn 0.9993 -0.0370 0.0000
vn -0.9996 -0.0000 0.0268
vn -0.9993 0.0370 0.0000
vn -0.9993 -0.0370 0.0000
usemtl Material.002
s off
f 1/1/1 5/2/1 6/3/1 2/4/1
f 5/2/2 7/5/2 8/6/2 6/3/2
f 7/5/3 3/7/3 4/8/3 8/6/3
f 3/7/2 4/8/2 2/4/2 1/1/2
f 14/9/3 13/10/3 9/11/3 10/12/3
f 14/9/4 16/13/4 15/14/4 13/15/4
f 16/13/1 12/16/1 11/17/1 15/14/1
f 10/12/4 12/16/4 11/17/4 9/11/4
f 4/8/5 12/16/5 16/13/5 8/6/5
f 8/6/6 16/13/6 14/9/6 6/3/6
f 6/3/7 14/9/7 10/12/7 2/4/7
f 10/12/8 2/4/8 4/8/8 12/16/8
f 13/15/8 15/18/8 7/19/8 5/2/8
f 7/5/9 15/14/9 11/17/9 3/7/9
f 11/17/6 3/7/6 1/1/6 9/11/6
f 1/1/10 9/11/10 13/10/10 5/20/10
o Plane.001
v 0.214573 1.024268 1.410724
v 0.214573 -1.021100 1.410724
v 0.214573 1.024268 -1.410724
v 0.214573 -1.021100 -1.410724
vt 0.382126 0.492215
vt 0.382126 0.328464
vt 0.608011 0.328464
vt 0.608011 0.492215
vn 1.0000 0.0000 0.0000
usemtl Material.001
s off
f 17/21/11 18/22/11 20/23/11 19/24/11
o Plane.003
v 0.224854 1.000000 1.379433
v 0.298945 1.000000 1.379433
v 0.224854 -1.000000 1.379433
v 0.298946 -1.000000 1.379433
v 0.224854 1.000000 -1.379433
v 0.298945 1.000000 -1.379433
v 0.224854 -1.000000 -1.379433
v 0.298946 -1.000000 -1.379433
v 0.221673 1.085868 1.497882
v 0.302126 1.085868 1.497882
v 0.221673 -1.085868 1.497882
v 0.302127 -1.085868 1.497882
v 0.221673 1.085868 -1.497882
v 0.302126 1.085868 -1.497882
v 0.221673 -1.085868 -1.497882
v 0.302127 -1.085868 -1.497882
vt 0.000000 0.000000
vt 0.000000 1.000000
vt 0.000000 0.000000
vt 0.000000 0.000000
vt 0.000000 0.000000
vt 0.000000 0.000000
vt 0.000000 0.000000
vt 0.000000 0.000000
vt 0.000000 0.000000
vt 0.000000 0.000000
vt 0.000000 0.000000
vt 0.000000 0.000000
vt 0.000000 0.000000
vt 0.000000 0.000000
vt 0.000000 1.000000
vt 0.000000 0.000000
vt 0.000000 0.000000
vt 1.000000 1.000000
vt 1.000000 1.000000
vt 0.000000 0.000000
vn 0.0000 -1.0000 0.0000
vn 0.0000 0.0000 1.0000
vn 0.0000 1.0000 0.0000
vn 0.0000 0.0000 -1.0000
vn 0.9993 0.0370 0.0000
vn 0.9996 0.0000 0.0268
vn 0.9993 -0.0370 0.0000
vn -0.9996 -0.0000 0.0268
vn -0.9993 0.0370 0.0000
vn -0.9993 -0.0370 0.0000
usemtl Material.002
s off
f 21/25/12 25/26/12 26/27/12 22/28/12
f 25/26/13 27/29/13 28/30/13 26/27/13
f 27/29/14 23/31/14 24/32/14 28/30/14
f 23/31/13 24/32/13 22/28/13 21/25/13
f 34/33/14 33/34/14 29/35/14 30/36/14
f 34/33/15 36/37/15 35/38/15 33/39/15
f 36/37/12 32/40/12 31/41/12 35/38/12
f 30/36/15 32/40/15 31/41/15 29/35/15
f 24/32/16 32/40/16 36/37/16 28/30/16
f 28/30/17 36/37/17 34/33/17 26/27/17
f 26/27/18 34/33/18 30/36/18 22/28/18
f 30/36/19 22/28/19 24/32/19 32/40/19
f 33/39/19 35/42/19 27/43/19 25/26/19
f 27/29/20 35/38/20 31/41/20 23/31/20
f 31/41/17 23/31/17 21/25/17 29/35/17
f 21/25/21 29/35/21 33/34/21 25/44/21
o Plane.004
v 0.313273 3.171202 1.379433
v 0.387365 3.171202 1.379433
v 0.313274 1.171202 1.379433
v 0.387365 1.171202 1.379433
v 0.313273 3.171202 -1.379433
v 0.387365 3.171202 -1.379433
v 0.313274 1.171202 -1.379433
v 0.387365 1.171202 -1.379433
v 0.310092 3.257070 1.497882
v 0.390546 3.257070 1.497882
v 0.310092 1.085335 1.497882
v 0.390546 1.085335 1.497882
v 0.310092 3.257070 -1.497882
v 0.390546 3.257070 -1.497882
v 0.310092 1.085335 -1.497882
v 0.390546 1.085335 -1.497882
vt 0.000000 0.000000
vt 0.000000 1.000000
vt 0.000000 0.000000
vt 0.000000 0.000000
vt 0.000000 0.000000
vt 0.000000 0.000000
vt 0.000000 0.000000
vt 0.000000 0.000000
vt 0.000000 0.000000
vt 0.000000 0.000000
vt 0.000000 0.000000
vt 0.000000 0.000000
vt 0.000000 0.000000
vt 0.000000 0.000000
vt 0.000000 1.000000
vt 0.000000 0.000000
vt 0.000000 0.000000
vt 1.000000 1.000000
vt 1.000000 1.000000
vt 0.000000 0.000000
vn 0.0000 -1.0000 0.0000
vn 0.0000 0.0000 1.0000
vn 0.0000 1.0000 0.0000
vn 0.0000 0.0000 -1.0000
vn 0.9993 0.0370 0.0000
vn 0.9996 0.0000 0.0268
vn 0.9993 -0.0370 0.0000
vn -0.9996 -0.0000 0.0268
vn -0.9993 0.0370 0.0000
vn -0.9993 -0.0370 0.0000
usemtl Material.002
s off
f 37/45/22 41/46/22 42/47/22 38/48/22
f 41/46/23 43/49/23 44/50/23 42/47/23
f 43/49/24 39/51/24 40/52/24 44/50/24
f 39/51/23 40/52/23 38/48/23 37/45/23
f 50/53/24 49/54/24 45/55/24 46/56/24
f 50/53/25 52/57/25 51/58/25 49/59/25
f 52/57/22 48/60/22 47/61/22 51/58/22
f 46/56/25 48/60/25 47/61/25 45/55/25
f 40/52/26 48/60/26 52/57/26 44/50/26
f 44/50/27 52/57/27 50/53/27 42/47/27
f 42/47/28 50/53/28 46/56/28 38/48/28
f 46/56/29 38/48/29 40/52/29 48/60/29
f 49/59/29 51/62/29 43/63/29 41/46/29
f 43/49/30 51/58/30 47/61/30 39/51/30
f 47/61/27 39/51/27 37/45/27 45/55/27
f 37/45/31 45/55/31 49/54/31 41/64/31
o Plane.005
v 0.402226 3.195470 1.410724
v 0.402227 1.150102 1.410724
v 0.402226 3.195470 -1.410724
v 0.402227 1.150102 -1.410724
vt 0.382126 0.666041
vt 0.382126 0.502289
vt 0.608011 0.502289
vt 0.608011 0.666041
vn 1.0000 0.0000 0.0000
usemtl Material.001
s off
f 53/65/32 54/66/32 56/67/32 55/68/32
o Plane.006
v 0.409247 3.171202 1.379433
v 0.483338 3.171202 1.379433
v 0.409247 1.171202 1.379433
v 0.483339 1.171202 1.379433
v 0.409247 3.171202 -1.379433
v 0.483338 3.171202 -1.379433
v 0.409247 1.171202 -1.379433
v 0.483339 1.171202 -1.379433
v 0.406065 3.257070 1.497882
v 0.486519 3.257070 1.497882
v 0.406066 1.085335 1.497882
v 0.486520 1.085335 1.497882
v 0.406065 3.257070 -1.497882
v 0.486519 3.257070 -1.497882
v 0.406066 1.085335 -1.497882
v 0.486520 1.085335 -1.497882
vt 0.000000 0.000000
vt 0.000000 1.000000
vt 0.000000 0.000000
vt 0.000000 0.000000
vt 0.000000 0.000000
vt 0.000000 0.000000
vt 0.000000 0.000000
vt 0.000000 0.000000
vt 0.000000 0.000000
vt 0.000000 0.000000
vt 0.000000 0.000000
vt 0.000000 0.000000
vt 0.000000 0.000000
vt 0.000000 0.000000
vt 0.000000 1.000000
vt 0.000000 0.000000
vt 0.000000 0.000000
vt 1.000000 1.000000
vt 1.000000 1.000000
vt 0.000000 0.000000
vn 0.0000 -1.0000 0.0000
vn 0.0000 0.0000 1.0000
vn 0.0000 1.0000 0.0000
vn 0.0000 0.0000 -1.0000
vn 0.9993 0.0370 0.0000
vn 0.9996 0.0000 0.0268
vn 0.9993 -0.0370 0.0000
vn -0.9996 -0.0000 0.0268
vn -0.9993 0.0370 0.0000
vn -0.9993 -0.0370 0.0000
usemtl Material.002
s off
f 57/69/33 61/70/33 62/71/33 58/72/33
f 61/70/34 63/73/34 64/74/34 62/71/34
f 63/73/35 59/75/35 60/76/35 64/74/35
f 59/75/34 60/76/34 58/72/34 57/69/34
f 70/77/35 69/78/35 65/79/35 66/80/35
f 70/77/36 72/81/36 71/82/36 69/83/36
f 72/81/33 68/84/33 67/85/33 71/82/33
f 66/80/36 68/84/36 67/85/36 65/79/36
f 60/76/37 68/84/37 72/81/37 64/74/37
f 64/74/38 72/81/38 70/77/38 62/71/38
f 62/71/39 70/77/39 66/80/39 58/72/39
f 66/80/40 58/72/40 60/76/40 68/84/40
f 69/83/40 71/86/40 63/87/40 61/70/40
f 63/73/41 71/82/41 67/85/41 59/75/41
f 67/85/38 59/75/38 57/69/38 65/79/38
f 57/69/42 65/79/42 69/78/42 61/88/42
o Cube_Cube.001
v 0.080906 -1.199440 1.597655
v 0.080906 3.399563 1.597655
v 0.080906 -1.199440 -1.645014
v 0.080906 3.399563 -1.645014
v 0.541702 -1.199440 1.597655
v 0.541702 3.399563 1.597655
v 0.541702 -1.199440 -1.645014
v 0.541702 3.399563 -1.645014
v 0.541702 -1.060856 1.429125
v 0.541702 -0.960418 1.429125
v 0.080906 -1.060856 1.429125
v 0.541702 3.250269 1.429125
v 0.080906 3.250269 1.429125
v 0.541702 3.250269 -1.494755
v 0.080906 3.250269 -1.494756
v 0.541702 -1.060856 -1.494755
v 0.080906 -1.060856 -1.494756
vt 0.375000 0.000000
vt 0.625000 0.000000
vt 0.616884 0.012993
vt 0.382533 0.012993
vt 0.382533 0.238416
vt 0.375000 0.250000
vt 0.625000 0.250000
vt 0.625000 0.500000
vt 0.375000 0.500000
vt 0.616884 0.511584
vt 0.382533 0.511584
vt 0.382533 0.737007
vt 0.387993 0.737007
vt 0.375000 0.750000
vt 0.625000 0.750000
vt 0.625000 1.000000
vt 0.375000 1.000000
vt 0.125000 0.500000
vt 0.125000 0.750000
vt 0.875000 0.500000
vt 0.875000 0.750000
vt 0.375000 0.353067
vt 0.375000 0.396933
vt 0.625000 0.396933
vt 0.625000 0.353067
vt 0.616884 0.737007
vt 0.616884 0.238416
vt 0.228067 0.750000
vt 0.271933 0.750000
vt 0.271933 0.500000
vt 0.228067 0.500000
vt 0.375000 0.853067
vt 0.375000 0.896933
vt 0.625000 0.896933
vt 0.625000 0.853067
vt 0.380824 0.853067
vt 0.728067 0.750000
vt 0.771933 0.750000
vt 0.771933 0.500000
vt 0.728067 0.500000
vn -1.0000 -0.0000 0.0000
vn 0.0000 0.0000 -1.0000
vn 1.0000 0.0000 0.0000
vn 0.0000 0.0000 1.0000
vn 0.0000 -1.0000 0.0000
vn 0.0000 1.0000 0.0000
usemtl Material.002
s off
f 73/89/43 74/90/43 85/91/43 83/92/43 89/93/43 75/94/43
f 75/94/44 76/95/44 80/96/44 79/97/44
f 79/97/45 80/96/45 86/98/45 88/99/45 81/100/45 82/101/45 77/102/45
f 77/102/46 78/103/46 74/104/46 73/105/46
f 75/106/47 79/97/47 77/102/47 73/107/47
f 80/96/48 76/108/48 74/109/48 78/103/48
f 89/110/46 88/111/46 86/112/46 87/113/46
f 77/102/45 82/101/45 84/114/45 86/98/45 80/96/45 78/103/45
f 75/94/43 89/93/43 87/115/43 85/91/43 74/90/43 76/95/43
f 83/116/48 81/117/48 88/118/48 89/119/48
f 81/120/44 83/121/44 85/122/44 84/123/44 82/124/44
f 84/125/47 85/126/47 87/127/47 86/128/47
