# This file uses centimeters as units for non-parametric coordinates.

mtllib Pintura1.mtl
g default
v -3.482863 0.076037 0.074623
v -1.637978 0.076037 0.074623
v -3.482863 1.259288 0.072417
v -1.637978 1.259288 0.074623
v -3.482863 1.259288 -0.082659
v -1.637978 1.259288 -0.084865
v -3.482863 0.076037 -0.084865
v -1.637978 0.076037 -0.084865
vt -0.184765 1.079547
vt 1.009838 0.989585
vt 0.989742 0.300882
vt 0.015256 0.995591
vt -0.554610 0.005208
vt -0.449549 0.000210
vt -0.974434 0.490109
vt 0.739952 0.779987
vt 0.559922 1.314868
vt 0.764941 1.234901
vt 0.989952 0.029987
vt -0.199549 -0.249790
vt -1.224434 -0.259891
vt -0.804610 -0.244792
vt -0.006539 0.006419
vt 0.975233 -0.003577
vt 0.985229 0.971433
vt 0.003456 0.981429
vt 0.235059 1.090551
vn -0.000598 0.000932 0.999999
vn -0.000598 0.000932 0.999999
vn -0.000598 0.000932 0.999999
vn -0.000598 0.000932 0.999999
vn 0.000000 1.000000 0.000000
vn 0.000000 1.000000 0.000000
vn 0.000000 1.000000 0.000000
vn 0.000000 1.000000 0.000000
vn -0.000598 0.000932 -0.999999
vn -0.000598 0.000932 -0.999999
vn -0.000598 0.000932 -0.999999
vn -0.000598 0.000932 -0.999999
vn 0.000000 -1.000000 0.000000
vn 0.000000 -1.000000 0.000000
vn 0.000000 -1.000000 0.000000
vn 0.000000 -1.000000 0.000000
vn 1.000000 0.000000 0.000000
vn 1.000000 0.000000 0.000000
vn 1.000000 0.000000 0.000000
vn 1.000000 0.000000 0.000000
vn -1.000000 -0.000000 0.000000
vn -1.000000 -0.000000 0.000000
vn -1.000000 -0.000000 0.000000
vn -1.000000 -0.000000 0.000000
s off
g pCube1
usemtl lambert4SG
f 1/15/1 2/16/2 4/17/3 3/18/4
f 3/3/5 4/4/6 6/6/7 5/5/8
f 5/5/9 6/6/10 8/8/11 7/7/12
f 7/7/13 8/8/14 2/10/15 1/9/16
f 2/2/17 8/11/18 6/12/19 4/4/20
f 7/13/21 1/1/22 3/19/23 5/14/24
