# This file uses centimeters as units for non-parametric coordinates.

mtllib Pintura2.mtl
g default
v -0.123397 0.070532 -0.049113
v -0.231122 0.070532 -0.262730
v -0.398907 0.070532 -0.432254
v -0.610329 0.070532 -0.541098
v -0.844691 0.070532 -0.578600
v -1.079054 0.070532 -0.541098
v -1.290476 0.070532 -0.432254
v -1.458261 0.070532 -0.262730
v -1.565985 0.070532 -0.049113
v -1.603105 0.070532 0.187681
v -1.565985 0.070532 0.424475
v -1.458261 0.070532 0.638093
v -1.290476 0.070532 0.807617
v -1.079054 0.070532 0.916460
v -0.844691 0.070532 0.953962
v -0.610329 0.070532 0.916460
v -0.398907 0.070532 0.807617
v -0.231122 0.070532 0.638093
v -0.123398 0.070532 0.424475
v -0.086278 0.070532 0.187681
v -0.123397 1.575700 -0.049113
v -0.231122 1.575700 -0.262730
v -0.398907 1.575700 -0.432254
v -0.610329 1.575700 -0.541098
v -0.844691 1.575700 -0.578600
v -1.079054 1.575700 -0.541098
v -1.290476 1.575700 -0.432254
v -1.458261 1.575700 -0.262730
v -1.565985 1.575700 -0.049113
v -1.603105 1.575700 0.187681
v -1.565985 1.575700 0.424475
v -1.458261 1.575700 0.638093
v -1.290476 1.575700 0.807617
v -1.079054 1.575700 0.916460
v -0.844691 1.575700 0.953962
v -0.610329 1.575700 0.916460
v -0.398907 1.575700 0.807617
v -0.231122 1.575700 0.638093
v -0.123398 1.575700 0.424475
v -0.086278 1.575700 0.187681
v -0.844691 0.070532 0.187681
v -0.844691 1.575700 0.187681
vt 1.080274 -0.542435
vt 0.993610 -0.658256
vt 0.858628 -0.750173
vt 0.688542 -0.809187
vt 0.500000 -0.829522
vt 0.311458 -0.809187
vt 0.141371 -0.750173
vt 0.006390 -0.658257
vt -0.080273 -0.542435
vt -0.110135 -0.414046
vt -0.080273 -0.285657
vt 0.006390 -0.169836
vt 0.141372 -0.077919
vt 0.311458 -0.018905
vt 0.500000 0.001429
vt 0.688542 -0.018905
vt 0.858628 -0.077919
vt 0.993610 -0.169836
vt 1.080274 -0.285657
vt 1.110135 -0.414046
vt 0.011892 0.001429
vt 0.060703 0.001429
vt 0.109513 0.001429
vt 0.158324 0.001429
vt 0.207135 0.001429
vt 0.255946 0.001429
vt 0.304756 0.001429
vt 0.353567 0.001429
vt 0.402378 0.001429
vt 0.451189 0.001429
vt 0.500000 0.001429
vt 0.548810 0.001429
vt 0.597621 0.001429
vt 0.646431 0.001429
vt 0.695243 0.001429
vt 0.744053 0.001429
vt 0.792864 0.001429
vt 0.841675 0.001429
vt 0.890485 0.001429
vt 0.939297 0.001429
vt 0.988107 0.001429
vt 0.011892 1.001070
vt 0.060703 1.001070
vt 0.109513 1.001070
vt 0.158324 1.001070
vt 0.207135 1.001070
vt 0.255946 1.001070
vt 0.304756 1.001070
vt 0.353567 1.001070
vt 0.402378 1.001070
vt 0.451189 1.001070
vt 0.500000 1.001070
vt 0.548810 1.001070
vt 0.597621 1.001070
vt 0.646431 1.001070
vt 0.695243 1.001070
vt 0.744053 1.001070
vt 0.792864 1.001070
vt 0.841675 1.001070
vt 0.890485 1.001070
vt 0.939297 1.001070
vt 0.988107 1.001070
vt 1.080274 1.285657
vt 0.993610 1.169835
vt 0.858628 1.077919
vt 0.688542 1.018906
vt 0.500000 0.998570
vt 0.311458 1.018906
vt 0.141371 1.077920
vt 0.006390 1.169836
vt -0.080273 1.285657
vt -0.110135 1.414046
vt -0.080273 1.542434
vt 0.006390 1.658255
vt 0.141372 1.750172
vt 0.311458 1.809186
vt 0.500000 1.829520
vt 0.688542 1.809186
vt 0.858628 1.750172
vt 0.993610 1.658255
vt 1.080274 1.542434
vt 1.110135 1.414046
vt 0.500000 -0.430665
vt 0.500000 1.397427
vn 0.951986 0.000000 -0.306141
vn 0.811888 0.000000 -0.583813
vn 0.811888 0.000000 -0.583813
vn 0.951986 0.000000 -0.306141
vn 0.591754 0.000000 -0.806119
vn 0.591754 0.000000 -0.806119
vn 0.311910 0.000000 -0.950112
vn 0.311910 0.000000 -0.950112
vn 0.000001 0.000000 -1.000000
vn 0.000001 0.000000 -1.000000
vn -0.311910 0.000000 -0.950112
vn -0.311910 0.000000 -0.950112
vn -0.591755 0.000000 -0.806118
vn -0.591755 0.000000 -0.806118
vn -0.811888 0.000000 -0.583813
vn -0.811888 0.000000 -0.583813
vn -0.951986 0.000000 -0.306141
vn -0.951986 0.000000 -0.306141
vn -1.000000 0.000000 0.000000
vn -1.000000 0.000000 0.000000
vn -0.951986 0.000000 0.306141
vn -0.951986 0.000000 0.306141
vn -0.811889 0.000000 0.583813
vn -0.811889 0.000000 0.583813
vn -0.591754 0.000000 0.806119
vn -0.591754 0.000000 0.806119
vn -0.311910 0.000000 0.950112
vn -0.311910 0.000000 0.950112
vn -0.000000 0.000000 1.000000
vn -0.000000 0.000000 1.000000
vn 0.311909 0.000000 0.950112
vn 0.311909 0.000000 0.950112
vn 0.591754 0.000000 0.806118
vn 0.591754 0.000000 0.806118
vn 0.811889 0.000000 0.583812
vn 0.811889 0.000000 0.583812
vn 0.951986 0.000000 0.306141
vn 0.951986 0.000000 0.306141
vn 1.000000 0.000000 0.000001
vn 1.000000 0.000000 0.000001
vn 0.000000 -1.000000 -0.000000
vn 0.000000 -1.000000 0.000000
vn 0.000000 -1.000000 0.000000
vn 0.000000 -1.000000 -0.000000
vn 0.000000 -1.000000 -0.000000
vn 0.000000 -1.000000 0.000000
vn 0.000000 -1.000000 0.000000
vn 0.000000 -1.000000 0.000000
vn 0.000000 -1.000000 0.000000
vn 0.000000 -1.000000 0.000000
vn 0.000000 -1.000000 0.000000
vn 0.000000 -1.000000 0.000000
vn 0.000000 -1.000000 0.000000
vn 0.000000 -1.000000 0.000000
vn 0.000000 -1.000000 -0.000000
vn 0.000000 -1.000000 -0.000000
vn 0.000000 -1.000000 0.000000
vn 0.000000 -1.000000 0.000000
vn 0.000000 -1.000000 0.000000
vn 0.000000 -1.000000 0.000000
vn 0.000000 -1.000000 -0.000000
vn 0.000000 1.000000 0.000000
vn 0.000000 1.000000 -0.000000
vn 0.000000 1.000000 -0.000000
vn 0.000000 1.000000 -0.000000
vn 0.000000 1.000000 0.000000
vn 0.000000 1.000000 0.000000
vn 0.000000 1.000000 0.000000
vn 0.000000 1.000000 0.000000
vn 0.000000 1.000000 0.000000
vn 0.000000 1.000000 0.000000
vn 0.000000 1.000000 0.000000
vn 0.000000 1.000000 0.000000
vn 0.000000 1.000000 0.000000
vn 0.000000 1.000000 0.000000
vn 0.000000 1.000000 0.000000
vn 0.000000 1.000000 -0.000000
vn 0.000000 1.000000 -0.000000
vn 0.000000 1.000000 0.000000
vn 0.000000 1.000000 0.000000
vn 0.000000 1.000000 -0.000000
vn 0.000000 1.000000 0.000000
s 1
g pCylinder1
usemtl initialShadingGroup
f 1/21/1 2/22/2 22/43/3 21/42/4
f 2/22/2 3/23/5 23/44/6 22/43/3
f 3/23/5 4/24/7 24/45/8 23/44/6
f 4/24/7 5/25/9 25/46/10 24/45/8
f 5/25/9 6/26/11 26/47/12 25/46/10
f 6/26/11 7/27/13 27/48/14 26/47/12
f 7/27/13 8/28/15 28/49/16 27/48/14
f 8/28/15 9/29/17 29/50/18 28/49/16
f 9/29/17 10/30/19 30/51/20 29/50/18
f 10/30/19 11/31/21 31/52/22 30/51/20
f 11/31/21 12/32/23 32/53/24 31/52/22
f 12/32/23 13/33/25 33/54/26 32/53/24
f 13/33/25 14/34/27 34/55/28 33/54/26
f 14/34/27 15/35/29 35/56/30 34/55/28
f 15/35/29 16/36/31 36/57/32 35/56/30
f 16/36/31 17/37/33 37/58/34 36/57/32
f 17/37/33 18/38/35 38/59/36 37/58/34
f 18/38/35 19/39/37 39/60/38 38/59/36
f 19/39/37 20/40/39 40/61/40 39/60/38
f 20/40/39 1/41/1 21/62/4 40/61/40
s 2
f 2/2/41 1/1/42 41/83/43
f 3/3/44 2/2/41 41/83/43
f 4/4/45 3/3/44 41/83/43
f 5/5/46 4/4/45 41/83/43
f 6/6/47 5/5/46 41/83/43
f 7/7/48 6/6/47 41/83/43
f 8/8/49 7/7/48 41/83/43
f 9/9/50 8/8/49 41/83/43
f 10/10/51 9/9/50 41/83/43
f 11/11/52 10/10/51 41/83/43
f 12/12/53 11/11/52 41/83/43
f 13/13/54 12/12/53 41/83/43
f 14/14/55 13/13/54 41/83/43
f 15/15/56 14/14/55 41/83/43
f 16/16/57 15/15/56 41/83/43
f 17/17/58 16/16/57 41/83/43
f 18/18/59 17/17/58 41/83/43
f 19/19/60 18/18/59 41/83/43
f 20/20/61 19/19/60 41/83/43
f 1/1/42 20/20/61 41/83/43
s 3
f 21/81/62 22/80/63 42/84/64
f 22/80/63 23/79/65 42/84/64
f 23/79/65 24/78/66 42/84/64
f 24/78/66 25/77/67 42/84/64
f 25/77/67 26/76/68 42/84/64
f 26/76/68 27/75/69 42/84/64
f 27/75/69 28/74/70 42/84/64
f 28/74/70 29/73/71 42/84/64
f 29/73/71 30/72/72 42/84/64
f 30/72/72 31/71/73 42/84/64
f 31/71/73 32/70/74 42/84/64
f 32/70/74 33/69/75 42/84/64
f 33/69/75 34/68/76 42/84/64
f 34/68/76 35/67/77 42/84/64
f 35/67/77 36/66/78 42/84/64
f 36/66/78 37/65/79 42/84/64
f 37/65/79 38/64/80 42/84/64
f 38/64/80 39/63/81 42/84/64
f 39/63/81 40/82/82 42/84/64
f 40/82/82 21/81/62 42/84/64
